<?xml version="1.0" encoding="UTF-8" standalone="no"?>
<!-- Created with Inkscape (http://www.inkscape.org/) -->

<svg
   width="557"
   height="232"
   viewBox="0 0 557 232"
   version="1.1"
   id="svg1"
   xml:space="preserve"
   inkscape:version="1.3.2 (091e20ef0f, 2023-11-25)"
   sodipodi:docname="Interact.svg"
   inkscape:export-filename="Interact-export.svg"
   inkscape:export-xdpi="96"
   inkscape:export-ydpi="96"
   xmlns:inkscape="http://www.inkscape.org/namespaces/inkscape"
   xmlns:sodipodi="http://sodipodi.sourceforge.net/DTD/sodipodi-0.dtd"
   xmlns="http://www.w3.org/2000/svg"
   xmlns:svg="http://www.w3.org/2000/svg"><sodipodi:namedview
     id="namedview1"
     pagecolor="#ffffff"
     bordercolor="#000000"
     borderopacity="0.25"
     inkscape:showpageshadow="2"
     inkscape:pageopacity="0.0"
     inkscape:pagecheckerboard="0"
     inkscape:deskcolor="#d1d1d1"
     inkscape:document-units="px"
     inkscape:zoom="2.2186519"
     inkscape:cx="149.86578"
     inkscape:cy="70.087605"
     inkscape:window-width="1920"
     inkscape:window-height="1011"
     inkscape:window-x="0"
     inkscape:window-y="0"
     inkscape:window-maximized="1"
     inkscape:current-layer="layer1" /><defs
     id="defs1" /><g
     inkscape:label="Layer 1"
     inkscape:groupmode="layer"
     id="layer1"
     style="fill:#36403f;fill-opacity:1"><rect
       style="display:inline;fill:#212221;fill-opacity:1;stroke-width:2.72092;stroke-linecap:round;stroke-linejoin:round;stroke-miterlimit:5.1;stroke-dashoffset:0.940798;paint-order:stroke fill markers"
       id="rect1"
       width="557"
       height="232"
       x="0"
       y="0"
       ry="23"
       rx="23" /><g
       id="g4"
       inkscape:label="East"
       transform="matrix(1.7798087,0,0,1.7798087,86.278654,122.02243)"
       style="fill:#36403f;fill-opacity:1"><circle
         style="fill:none;fill-opacity:0.998356;stroke:#ffffff;stroke-width:2.51279;stroke-linecap:round;stroke-miterlimit:5.1;stroke-dasharray:none;stroke-dashoffset:1.50767;stroke-opacity:1;paint-order:stroke fill markers"
         id="path4"
         cx="32.646172"
         cy="9.7654696"
         r="7.2744288" /><circle
         style="fill:none;fill-opacity:0.998356;stroke:#ffffff;stroke-width:2.51279;stroke-linecap:round;stroke-miterlimit:5.1;stroke-dasharray:none;stroke-dashoffset:1.50767;stroke-opacity:1;paint-order:stroke fill markers"
         id="circle4"
         cx="32.646172"
         cy="37.776825"
         r="7.2744288" /><circle
         style="fill:none;fill-opacity:0.998356;stroke:#ffffff;stroke-width:2.51279;stroke-linecap:round;stroke-miterlimit:5.1;stroke-dasharray:none;stroke-dashoffset:1.50767;stroke-opacity:1;paint-order:stroke fill markers"
         id="circle7"
         cx="-23.771147"
         cy="18.640493"
         r="7.2744288"
         transform="rotate(-90)" /><circle
         style="fill:#ffffff;fill-opacity:1;stroke:#ffffff;stroke-width:2.51279;stroke-linecap:round;stroke-miterlimit:5.1;stroke-dasharray:none;stroke-dashoffset:1.50767;stroke-opacity:1;paint-order:stroke fill markers"
         id="circle8"
         cx="-23.771147"
         cy="46.651848"
         r="7.2744288"
         transform="rotate(-90)" /></g><g
       id="g3"
       inkscape:label="E"
       style="fill:#36403f;fill-opacity:1"
       transform="matrix(0.50437579,0,0,0.50437579,12.80853,16.001737)"><rect
         style="display:inline;fill:#36403f;fill-opacity:1;stroke-width:1.79906;stroke-linecap:round;stroke-linejoin:round;stroke-miterlimit:5.1;stroke-dashoffset:0.940798;paint-order:stroke fill markers"
         id="rect2"
         width="165.98332"
         height="165.98332"
         x="25.843229"
         y="32.28603"
         rx="23"
         ry="23" /><path
         style="font-size:128px;font-family:'Open Sans';-inkscape-font-specification:'Open Sans';text-align:center;text-anchor:middle;fill:#ffffff;stroke-width:1.79906;stroke-linecap:round;stroke-linejoin:round;stroke-miterlimit:5.1;stroke-dashoffset:0.940798;paint-order:stroke fill markers"
         d="M 129.93692,163.13513 H 78.99942 V 71.760132 h 50.9375 v 9.4375 h -40.3125 v 29.437498 h 37.875 v 9.375 h -37.875 v 33.625 h 40.3125 z"
         id="text2"
         aria-label="E" /></g><path
       d="M 245.51283,140.95433 V 89.555893 h 5.97657 v 51.398437 z m 45.5625,0 v -24.92578 q 0,-4.71094 -2.14453,-7.03125 -2.14453,-2.32031 -6.71484,-2.32031 -6.04688,0 -8.85938,3.26953 -2.8125,3.26953 -2.8125,10.79297 v 20.21484 h -5.83593 v -38.53125 h 4.74609 l 0.94922,5.27344 h 0.28125 q 1.79297,-2.84766 5.02734,-4.39453 3.23438,-1.58203 7.20703,-1.58203 6.96094,0 10.47657,3.375 3.51562,3.33984 3.51562,10.72265 v 25.13672 z m 30.26953,-4.11328 q 1.54688,0 2.98829,-0.21094 1.4414,-0.24609 2.28515,-0.49219 v 4.46485 q -0.94922,0.45703 -2.8125,0.73828 -1.82812,0.31641 -3.30469,0.31641 -11.17968,0 -11.17968,-11.77735 v -22.92187 h -5.51953 v -2.8125 l 5.51953,-2.42578 2.46093,-8.226567 h 3.375 v 8.929687 h 11.17969 v 4.53516 h -11.17969 v 22.67578 q 0,3.48047 1.65235,5.34375 1.65234,1.86328 4.53515,1.86328 z m 29.25,4.81641 q -8.54296,0 -13.5,-5.20313 -4.92187,-5.20312 -4.92187,-14.44922 0,-9.3164 4.57031,-14.80078 4.60547,-5.48437 12.33985,-5.48437 7.24218,0 11.46093,4.78125 4.21875,4.74609 4.21875,12.55078 v 3.6914 h -26.54297 q 0.17579,6.78516 3.41016,10.30078 3.26953,3.51563 9.17578,3.51563 6.22266,0 12.30469,-2.60156 v 5.20312 q -3.09375,1.33594 -5.87109,1.89844 -2.74219,0.59766 -6.64454,0.59766 z m -1.58203,-35.05079 q -4.64062,0 -7.41797,3.02344 -2.74218,3.02344 -3.23437,8.36719 h 20.14453 q 0,-5.51953 -2.46094,-8.4375 -2.46093,-2.95313 -7.03125,-2.95313 z m 43.27735,-4.88671 q 2.5664,0 4.60547,0.42187 l -0.8086,5.41406 q -2.39062,-0.52734 -4.21875,-0.52734 -4.67578,0 -8.01562,3.79687 -3.30469,3.79688 -3.30469,9.45704 v 20.67187 h -5.83594 v -38.53125 h 4.81641 l 0.66797,7.13672 h 0.28125 q 2.14453,-3.76172 5.16797,-5.80078 3.02343,-2.03906 6.64453,-2.03906 z m 34.0664,39.23437 -1.16015,-5.48437 h -0.28125 q -2.88282,3.62109 -5.76563,4.92187 -2.84765,1.26563 -7.13672,1.26563 -5.73047,0 -9,-2.95313 -3.23437,-2.95312 -3.23437,-8.40234 0,-11.67188 18.66797,-12.23438 l 6.53906,-0.21094 v -2.39062 q 0,-4.53516 -1.96875,-6.67969 -1.93359,-2.17969 -6.22266,-2.17969 -4.8164,0 -10.89843,2.95313 l -1.79297,-4.46484 q 2.84765,-1.54688 6.22265,-2.42579 3.41016,-0.8789 6.82032,-0.8789 6.89062,0 10.19531,3.05859 3.33984,3.0586 3.33984,9.8086 v 26.29687 z m -13.18359,-4.11328 q 5.44922,0 8.54297,-2.98828 3.1289,-2.98828 3.1289,-8.36719 v -3.48047 l -5.83593,0.2461 q -6.96094,0.24609 -10.05469,2.17968 -3.05859,1.89844 -3.05859,5.94141 0,3.16406 1.89843,4.81641 1.9336,1.65234 5.37891,1.65234 z m 44.92969,4.81641 q -8.36719,0 -12.97266,-5.13282 -4.57031,-5.16797 -4.57031,-14.58984 0,-9.66797 4.64062,-14.94141 4.67578,-5.27343 13.28907,-5.27343 2.77734,0 5.55468,0.59765 2.77735,0.59766 4.35938,1.40625 l -1.79297,4.95703 q -1.93359,-0.77343 -4.21875,-1.26562 -2.28516,-0.52735 -4.04297,-0.52735 -11.74219,0 -11.74219,14.97657 0,7.10156 2.84766,10.89843 2.88281,3.79688 8.50781,3.79688 4.81641,0 9.87891,-2.07422 v 5.16797 q -3.86719,2.00391 -9.73828,2.00391 z m 31.32422,-4.81641 q 1.54687,0 2.98828,-0.21094 1.4414,-0.24609 2.28515,-0.49219 v 4.46485 q -0.94922,0.45703 -2.8125,0.73828 -1.82812,0.31641 -3.30468,0.31641 -11.17969,0 -11.17969,-11.77735 v -22.92187 h -5.51953 v -2.8125 l 5.51953,-2.42578 2.46094,-8.226567 h 3.375 v 8.929687 h 11.17968 v 4.53516 H 483.2394 v 22.67578 q 0,3.48047 1.65234,5.34375 1.65234,1.86328 4.53516,1.86328 z"
       id="text3"
       style="font-size:72px;font-family:'Open Sans';-inkscape-font-specification:'Open Sans';fill:#ffffff;stroke-width:1.79906;stroke-linecap:round;stroke-linejoin:round;stroke-miterlimit:5.1;stroke-dashoffset:0.940798;paint-order:stroke fill markers"
       aria-label="Interact" /><path
       style="fill:none;fill-opacity:1;stroke:#ffffff;stroke-width:5.20859;stroke-linecap:round;stroke-linejoin:round;stroke-miterlimit:5.1;stroke-dasharray:none;stroke-dashoffset:0.940798;stroke-opacity:1;paint-order:stroke fill markers"
       d="M 41.150083,190.84993 190.84992,41.150081"
       id="path3" /></g></svg>
