<?xml version="1.0" encoding="UTF-8" standalone="no"?>
<!-- Created with Inkscape (http://www.inkscape.org/) -->

<svg
   width="128"
   height="128"
   viewBox="0 0 47.999994 47.999994"
   version="1.1"
   id="svg1"
   inkscape:version="1.3.2 (091e20ef0f, 2023-11-25)"
   sodipodi:docname="Back.svg"
   xmlns:inkscape="http://www.inkscape.org/namespaces/inkscape"
   xmlns:sodipodi="http://sodipodi.sourceforge.net/DTD/sodipodi-0.dtd"
   xmlns="http://www.w3.org/2000/svg"
   xmlns:svg="http://www.w3.org/2000/svg">
  <sodipodi:namedview
     id="namedview1"
     pagecolor="#535353"
     bordercolor="#000000"
     borderopacity="0.25"
     inkscape:showpageshadow="2"
     inkscape:pageopacity="0.0"
     inkscape:pagecheckerboard="true"
     inkscape:deskcolor="#d1d1d1"
     inkscape:document-units="px"
     inkscape:zoom="1.7775225"
     inkscape:cx="14.34581"
     inkscape:cy="1.9690327"
     inkscape:window-width="1920"
     inkscape:window-height="1011"
     inkscape:window-x="0"
     inkscape:window-y="0"
     inkscape:window-maximized="1"
     inkscape:current-layer="layer1" />
  <defs
     id="defs1" />
  <g
     inkscape:label="Layer 1"
     inkscape:groupmode="layer"
     id="layer1"
     transform="translate(3.0235966,-1.136424)">
    <g
       id="g4"
       inkscape:label="Buttons"
       transform="matrix(0.34156875,0,0,0.34156875,13.980301,27.859809)">
      <circle
         style="fill:none;fill-opacity:0.998356;stroke:#ffffff;stroke-width:2.51279;stroke-linecap:round;stroke-miterlimit:5.1;stroke-dasharray:none;stroke-dashoffset:1.50767;stroke-opacity:1;paint-order:stroke fill markers"
         id="path4"
         cx="32.646172"
         cy="9.7654696"
         r="7.2744288" />
      <circle
         style="fill:#ffffff;fill-opacity:0.998356;stroke:#ffffff;stroke-width:2.51279;stroke-linecap:round;stroke-miterlimit:5.1;stroke-dasharray:none;stroke-dashoffset:1.50767;stroke-opacity:1;paint-order:stroke fill markers"
         id="circle4"
         cx="32.646172"
         cy="37.776825"
         r="7.2744288" />
      <circle
         style="fill:none;fill-opacity:0.998356;stroke:#ffffff;stroke-width:2.51279;stroke-linecap:round;stroke-miterlimit:5.1;stroke-dasharray:none;stroke-dashoffset:1.50767;stroke-opacity:1;paint-order:stroke fill markers"
         id="circle7"
         cx="-23.771147"
         cy="18.640493"
         r="7.2744288"
         transform="rotate(-90)" />
      <circle
         style="fill:none;fill-opacity:0.998356;stroke:#ffffff;stroke-width:2.51279;stroke-linecap:round;stroke-miterlimit:5.1;stroke-dasharray:none;stroke-dashoffset:1.50767;stroke-opacity:1;paint-order:stroke fill markers"
         id="circle8"
         cx="-23.771147"
         cy="46.651848"
         r="7.2744288"
         transform="rotate(-90)" />
    </g>
    <g
       id="g8"
       inkscape:label="Esc">
      <path
         id="rect8"
         style="fill:#ffffff;fill-opacity:0.998356;stroke:none;stroke-width:1.76956;stroke-linecap:round;stroke-miterlimit:5.1;stroke-dasharray:none;stroke-dashoffset:0.940798;stroke-opacity:1;paint-order:stroke fill markers"
         d="m 35.032665,18.232811 c -0.980269,0 -1.769531,0.789262 -1.769531,1.769531 v 7.738282 c 0,0.980269 0.789262,1.769531 1.769531,1.769531 h 7.738281 c 0.980269,0 1.769531,-0.789262 1.769531,-1.769531 v -7.738282 c 0,-0.980269 -0.789262,-1.769531 -1.769531,-1.769531 z m -0.09766,3.851563 h 2.292968 v 0.5 h -1.693359 v 0.966797 h 1.546875 v 0.484374 h -1.546875 v 1.054688 h 1.693359 v 0.5 h -2.292968 z m 3.902343,0.921875 c 0.130209,0 0.255426,0.01541 0.376953,0.04492 0.121528,0.02778 0.230686,0.07248 0.326172,0.136718 0.09549,0.06424 0.171007,0.14974 0.226563,0.253906 0.05555,0.104167 0.08203,0.231772 0.08203,0.382813 h -0.527344 c 0,-0.154514 -0.04904,-0.263672 -0.144531,-0.326172 -0.09549,-0.06424 -0.207899,-0.0957 -0.339844,-0.0957 -0.138888,0 -0.250651,0.02127 -0.333984,0.06641 -0.0816,0.04514 -0.123047,0.118056 -0.123047,0.21875 0,0.05729 0.023,0.106771 0.06641,0.148438 0.0434,0.03993 0.113716,0.07856 0.210938,0.113281 0.09896,0.03299 0.229601,0.06727 0.394531,0.105469 0.177083,0.04167 0.330729,0.09375 0.460938,0.15625 0.130208,0.06076 0.231337,0.141493 0.300781,0.242187 0.07118,0.09896 0.105469,0.22895 0.105469,0.388672 0,0.142361 -0.02865,0.26454 -0.08594,0.365235 -0.05556,0.100694 -0.131293,0.181857 -0.228515,0.246093 -0.09722,0.0625 -0.209419,0.109158 -0.337891,0.138672 -0.126736,0.02951 -0.261936,0.04492 -0.404297,0.04492 -0.142361,0 -0.280165,-0.01541 -0.412109,-0.04492 -0.130209,-0.02778 -0.247396,-0.07465 -0.351563,-0.140625 -0.10243,-0.06597 -0.183377,-0.154297 -0.24414,-0.263672 -0.05903,-0.109375 -0.08789,-0.242622 -0.08789,-0.402344 h 0.53125 c 0,0.170139 0.0549,0.287761 0.166015,0.355469 0.111111,0.06771 0.246312,0.101563 0.404297,0.101563 0.149306,0 0.269098,-0.02604 0.359375,-0.07813 0.09028,-0.05382 0.134766,-0.142362 0.134766,-0.265625 0,-0.109375 -0.04666,-0.190322 -0.138672,-0.244141 -0.09201,-0.05382 -0.251302,-0.10612 -0.480469,-0.158203 -0.189235,-0.04687 -0.353298,-0.101346 -0.492187,-0.162109 -0.137153,-0.06076 -0.243707,-0.141277 -0.31836,-0.240235 -0.07292,-0.100694 -0.109374,-0.228516 -0.109374,-0.384765 0,-0.121528 0.02626,-0.225912 0.08008,-0.314453 0.05555,-0.08854 0.130859,-0.161459 0.224609,-0.21875 0.09375,-0.05729 0.200738,-0.101129 0.322266,-0.128907 0.121527,-0.02778 0.251302,-0.04101 0.386718,-0.04101 z m 2.785157,0.002 c 0.20486,0 0.389757,0.03385 0.554687,0.101562 0.16493,0.06771 0.297309,0.169271 0.394531,0.304688 0.09896,0.135416 0.151042,0.307075 0.15625,0.513672 h -0.550781 c -0.0087,-0.14757 -0.06076,-0.26454 -0.15625,-0.34961 -0.09549,-0.08507 -0.225912,-0.126953 -0.392578,-0.126953 -0.223958,0 -0.388238,0.07791 -0.494141,0.232422 -0.105902,0.152778 -0.160156,0.366754 -0.160156,0.644531 0,0.180556 0.02344,0.336372 0.07031,0.464844 0.04687,0.128472 0.119357,0.225261 0.214843,0.292969 0.09722,0.06771 0.219836,0.101562 0.369141,0.101562 0.170139,0 0.305773,-0.04449 0.408203,-0.134765 0.102431,-0.09028 0.156901,-0.220487 0.16211,-0.390625 h 0.548828 c -0.0052,0.211805 -0.05729,0.389106 -0.15625,0.533203 -0.09896,0.144097 -0.231988,0.253255 -0.400391,0.326172 -0.166666,0.07118 -0.356554,0.107421 -0.568359,0.107421 -0.234375,0 -0.442926,-0.04666 -0.626954,-0.138671 -0.184027,-0.09375 -0.329861,-0.23698 -0.4375,-0.429688 -0.105902,-0.192708 -0.158203,-0.437283 -0.158203,-0.732422 0,-0.296874 0.04991,-0.541884 0.152344,-0.736328 0.104167,-0.19618 0.247396,-0.342014 0.429688,-0.4375 0.184027,-0.09722 0.397569,-0.146484 0.640625,-0.146484 z" />
    </g>
    <g
       id="g18"
       inkscape:label="Arrow"
       transform="matrix(1.8020135,0,0,1.8020135,-8.8049347,-3.6783333)"
       style="stroke-width:1.10987;stroke-dasharray:none">
      <path
         style="fill:none;fill-opacity:0.998356;stroke:#ffffff;stroke-width:1.10987;stroke-linecap:round;stroke-linejoin:round;stroke-miterlimit:5.1;stroke-dasharray:none;stroke-dashoffset:0.940798;stroke-opacity:1;paint-order:stroke fill markers"
         d="m 12.918,3.608 -6.453,6.453 6.453,6.453"
         id="path16"
         sodipodi:nodetypes="ccc" />
      <path
         style="fill:none;fill-opacity:0.998356;stroke:#ffffff;stroke-width:1.10987;stroke-linecap:round;stroke-linejoin:round;stroke-miterlimit:5.1;stroke-dasharray:none;stroke-dashoffset:0.940798;stroke-opacity:1;paint-order:stroke fill markers"
         d="M 6.465,10.061 H 21.582727"
         id="path18"
         sodipodi:nodetypes="cc" />
    </g>
  </g>
</svg>
