<?xml version="1.0" encoding="UTF-8" standalone="no"?>
<!-- Created with Inkscape (http://www.inkscape.org/) -->

<svg
   width="256"
   height="256"
   viewBox="0 0 67.733334 67.733333"
   version="1.1"
   id="svg1"
   inkscape:version="1.3.2 (091e20ef0f, 2023-11-25)"
   sodipodi:docname="Key-A-geen.svg"
   xmlns:inkscape="http://www.inkscape.org/namespaces/inkscape"
   xmlns:sodipodi="http://sodipodi.sourceforge.net/DTD/sodipodi-0.dtd"
   xmlns="http://www.w3.org/2000/svg"
   xmlns:svg="http://www.w3.org/2000/svg">
  <sodipodi:namedview
     id="namedview1"
     pagecolor="#ffffff"
     bordercolor="#000000"
     borderopacity="0.25"
     inkscape:showpageshadow="2"
     inkscape:pageopacity="0.0"
     inkscape:pagecheckerboard="true"
     inkscape:deskcolor="#d1d1d1"
     inkscape:document-units="mm"
     inkscape:zoom="1.8150571"
     inkscape:cx="62.532468"
     inkscape:cy="188.6993"
     inkscape:window-width="1920"
     inkscape:window-height="1011"
     inkscape:window-x="0"
     inkscape:window-y="0"
     inkscape:window-maximized="1"
     inkscape:current-layer="layer1" />
  <defs
     id="defs1" />
  <g
     inkscape:label="Layer 1"
     inkscape:groupmode="layer"
     id="layer1"
     style="display:inline">
    <path
       id="rect2"
       style="fill:#00ff00;stroke-width:0.374158;fill-opacity:1"
       d="M 16.008842 0 C 7.1400113 -1.2533172e-15 0 7.1400113 0 16.008842 L 0 51.724491 C -1.2533172e-15 60.593322 7.1400113 67.733333 16.008842 67.733333 L 51.724491 67.733333 C 60.593322 67.733333 67.733333 60.593322 67.733333 51.724491 L 67.733333 16.008842 C 67.733333 7.1400113 60.593322 0 51.724491 0 L 16.008842 0 z M 30.920076 15.349967 L 37.016345 15.349967 L 50.021236 52.383366 L 44.737838 52.383366 L 40.927734 41.257947 L 26.653153 41.257947 L 22.741248 52.383366 L 17.712097 52.383366 L 30.920076 15.349967 z M 33.91731 20.430278 L 27.821558 37.295915 L 39.606885 37.295915 L 33.91731 20.430278 z " />
  </g>
</svg>
