<?xml version="1.0" encoding="UTF-8" standalone="no"?>
<!-- Created with Inkscape (http://www.inkscape.org/) -->

<svg
   width="256"
   height="256"
   viewBox="0 0 67.733334 67.733333"
   version="1.1"
   id="svg1"
   inkscape:version="1.3.2 (091e20ef0f, 2023-11-25)"
   sodipodi:docname="Key-D.svg"
   xmlns:inkscape="http://www.inkscape.org/namespaces/inkscape"
   xmlns:sodipodi="http://sodipodi.sourceforge.net/DTD/sodipodi-0.dtd"
   xmlns="http://www.w3.org/2000/svg"
   xmlns:svg="http://www.w3.org/2000/svg">
  <sodipodi:namedview
     id="namedview1"
     pagecolor="#ffffff"
     bordercolor="#000000"
     borderopacity="0.25"
     inkscape:showpageshadow="2"
     inkscape:pageopacity="0.0"
     inkscape:pagecheckerboard="true"
     inkscape:deskcolor="#d1d1d1"
     inkscape:document-units="mm"
     inkscape:zoom="1.8150571"
     inkscape:cx="59.777734"
     inkscape:cy="188.6993"
     inkscape:window-width="1920"
     inkscape:window-height="1011"
     inkscape:window-x="0"
     inkscape:window-y="0"
     inkscape:window-maximized="1"
     inkscape:current-layer="layer1" />
  <defs
     id="defs1" />
  <g
     inkscape:label="Layer 1"
     inkscape:groupmode="layer"
     id="layer1"
     style="display:inline">
    <path
       id="rect2"
       style="fill:#000000;stroke-width:0.374158"
       d="M 16.008842 0 C 7.1400113 -1.2533172e-15 0 7.1400113 0 16.008842 L 0 51.724491 C -1.2533172e-15 60.593322 7.1400113 67.733333 16.008842 67.733333 L 51.724491 67.733333 C 60.593322 67.733333 67.733333 60.593322 67.733333 51.724491 L 67.733333 16.008842 C 67.733333 7.1400113 60.593322 0 51.724491 0 L 16.008842 0 z M 20.201351 15.349967 L 34.476449 15.349967 C 39.18391 15.349967 42.875244 16.992769 45.550708 20.277832 C 48.226172 23.562895 49.5639 28.084018 49.5639 33.841345 C 49.5639 39.598673 48.209396 44.136571 45.500065 47.455501 C 42.824601 50.740565 39.150044 52.383366 34.476449 52.383366 L 20.201351 52.383366 L 20.201351 15.349967 z M 24.926127 19.515605 L 24.926127 48.217729 L 33.663578 48.217729 C 37.321175 48.217729 40.098321 46.998468 41.994853 44.560071 C 43.891384 42.121673 44.83964 38.565583 44.83964 33.891988 C 44.83964 29.184526 43.891384 25.61166 41.994853 23.173263 C 40.098321 20.734865 37.321175 19.515605 33.663578 19.515605 L 24.926127 19.515605 z " />
  </g>
</svg>
