<?xml version="1.0" encoding="UTF-8" standalone="no"?>
<!-- Created with Inkscape (http://www.inkscape.org/) -->

<svg
   width="256"
   height="256"
   viewBox="0 0 67.733334 67.733333"
   version="1.1"
   id="svg1"
   inkscape:version="1.3.2 (091e20ef0f, 2023-11-25)"
   sodipodi:docname="Key-S-geen.svg"
   xmlns:inkscape="http://www.inkscape.org/namespaces/inkscape"
   xmlns:sodipodi="http://sodipodi.sourceforge.net/DTD/sodipodi-0.dtd"
   xmlns="http://www.w3.org/2000/svg"
   xmlns:svg="http://www.w3.org/2000/svg">
  <sodipodi:namedview
     id="namedview1"
     pagecolor="#ffffff"
     bordercolor="#000000"
     borderopacity="0.25"
     inkscape:showpageshadow="2"
     inkscape:pageopacity="0.0"
     inkscape:pagecheckerboard="true"
     inkscape:deskcolor="#d1d1d1"
     inkscape:document-units="mm"
     inkscape:zoom="1.8150571"
     inkscape:cx="59.777734"
     inkscape:cy="188.6993"
     inkscape:window-width="1920"
     inkscape:window-height="1011"
     inkscape:window-x="0"
     inkscape:window-y="0"
     inkscape:window-maximized="1"
     inkscape:current-layer="layer1" />
  <defs
     id="defs1" />
  <g
     inkscape:label="Layer 1"
     inkscape:groupmode="layer"
     id="layer1"
     style="display:inline">
    <path
       id="rect2"
       style="fill:#00ff00;stroke-width:0.374158;fill-opacity:1"
       d="M 16.008842 0 C 7.1400113 -1.2533172e-15 0 7.1400113 0 16.008842 L 0 51.724491 C -1.2533172e-15 60.593322 7.1400113 67.733333 16.008842 67.733333 L 51.724491 67.733333 C 60.593322 67.733333 67.733333 60.593322 67.733333 51.724491 L 67.733333 16.008842 C 67.733333 7.1400113 60.593322 0 51.724491 0 L 16.008842 0 z M 33.638257 14.740702 C 37.905453 14.740702 41.224091 15.75658 43.594755 17.788578 C 45.965419 19.78671 47.167903 22.597409 47.20177 26.221139 L 42.731242 26.221139 C 42.697375 23.816608 41.884363 21.970941 40.292631 20.684009 C 38.700899 19.36321 36.432208 18.702734 33.485811 18.702734 C 30.979681 18.702734 28.964701 19.278812 27.440702 20.430278 C 25.95057 21.581743 25.20518 23.088784 25.20518 24.951449 C 25.20518 26.373847 25.662273 27.491416 26.576672 28.304215 C 27.491071 29.117015 29.066251 29.827819 31.301449 30.437419 L 40.597522 32.926672 C 43.103653 33.604005 45.034234 34.755644 46.3889 36.381242 C 47.777432 38.00684 48.47146 39.954198 48.47146 42.223263 C 48.47146 43.205395 48.336216 44.18772 48.065283 45.169853 C 47.828217 46.118118 47.371123 47.11722 46.693791 48.167086 C 46.016458 49.183085 45.1526 50.080495 44.102734 50.859428 C 43.052869 51.63836 41.647519 52.281543 39.886454 52.789543 C 38.159256 53.297542 36.195122 53.55177 33.993791 53.55177 C 32.605259 53.55177 31.267531 53.433303 29.980599 53.196236 C 28.727534 52.993036 27.440651 52.603565 26.119853 52.027832 C 24.799054 51.418233 23.664192 50.656066 22.715926 49.741667 C 21.76766 48.793401 20.971941 47.540588 20.328475 45.982723 C 19.718876 44.424858 19.397026 42.62952 19.363159 40.597522 L 23.833687 40.597522 L 23.833687 40.85177 C 23.833687 41.901636 23.986224 42.883444 24.291024 43.797843 C 24.62969 44.712242 25.154405 45.61017 25.865605 46.490702 C 26.610671 47.371235 27.694687 48.082039 29.117086 48.623905 C 30.573351 49.131905 32.30055 49.386133 34.298682 49.386133 C 36.195213 49.386133 37.803428 49.165974 39.124227 48.725708 C 40.445026 48.285442 41.410575 47.709881 42.020174 46.998682 C 42.66364 46.287482 43.103957 45.592937 43.341024 44.915605 C 43.611957 44.204405 43.747201 43.459532 43.747201 42.680599 C 43.747201 39.869668 41.477993 37.871465 36.939864 36.686133 L 27.745076 34.247522 C 22.902148 32.994457 20.48092 30.116135 20.48092 25.611873 C 20.48092 22.259077 21.649335 19.617174 23.986133 17.686776 C 26.356797 15.722511 29.574261 14.740702 33.638257 14.740702 z " />
  </g>
</svg>
