<?xml version="1.0" encoding="UTF-8" standalone="no"?>
<!-- Created with Inkscape (http://www.inkscape.org/) -->

<svg
   width="256"
   height="256"
   viewBox="0 0 67.733334 67.733333"
   version="1.1"
   id="svg1"
   inkscape:version="1.3.2 (091e20ef0f, 2023-11-25)"
   sodipodi:docname="Key-W-geen.svg"
   xmlns:inkscape="http://www.inkscape.org/namespaces/inkscape"
   xmlns:sodipodi="http://sodipodi.sourceforge.net/DTD/sodipodi-0.dtd"
   xmlns="http://www.w3.org/2000/svg"
   xmlns:svg="http://www.w3.org/2000/svg">
  <sodipodi:namedview
     id="namedview1"
     pagecolor="#ffffff"
     bordercolor="#000000"
     borderopacity="0.25"
     inkscape:showpageshadow="2"
     inkscape:pageopacity="0.0"
     inkscape:pagecheckerboard="true"
     inkscape:deskcolor="#d1d1d1"
     inkscape:document-units="mm"
     inkscape:zoom="1.8150571"
     inkscape:cx="59.777734"
     inkscape:cy="188.6993"
     inkscape:window-width="1920"
     inkscape:window-height="1011"
     inkscape:window-x="0"
     inkscape:window-y="0"
     inkscape:window-maximized="1"
     inkscape:current-layer="layer1" />
  <defs
     id="defs1" />
  <g
     inkscape:label="Layer 1"
     inkscape:groupmode="layer"
     id="layer1"
     style="display:inline">
    <path
       id="rect2"
       style="fill:#05fb00;stroke-width:0.374158;fill-opacity:1"
       d="M 16.008842 0 C 7.1400113 -1.2533172e-15 0 7.1400113 0 16.008842 L 0 51.724491 C -1.2533172e-15 60.593322 7.1400113 67.733333 16.008842 67.733333 L 51.724491 67.733333 C 60.593322 67.733333 67.733333 60.593322 67.733333 51.724491 L 67.733333 16.008842 C 67.733333 7.1400113 60.593322 0 51.724491 0 L 16.008842 0 z M 10.828796 15.349967 L 16.112195 15.349967 L 23.07146 45.423584 L 31.301449 15.349967 L 36.381242 15.349967 L 44.814319 45.423584 L 51.621139 15.349967 L 56.904537 15.349967 L 47.506661 52.383366 L 42.325065 52.383366 L 33.790702 21.954215 L 25.510071 52.383366 L 20.328475 52.383366 L 10.828796 15.349967 z " />
  </g>
</svg>
