<?xml version="1.0" encoding="UTF-8"?><svg id="Layer_1" xmlns="http://www.w3.org/2000/svg" viewBox="0 0 512 512"><defs><style>.cls-1,.cls-2{fill:none;}.cls-1,.cls-2,.cls-3{stroke:#fff;stroke-width:24.92px;}.cls-1,.cls-3{stroke-linecap:round;stroke-linejoin:round;}.cls-2{stroke-miterlimit:10;}.cls-3{fill:#fff;}</style></defs><path class="cls-2" d="M362.48,261.88c11.95,64.41-25,129.44-88.89,150.9-69.96,23.5-145.73-14.16-169.24-84.13-10.9-32.44-8.64-66.12,3.88-95.27,3.91-9.09,8.81-17.74,14.63-25.77"/><path class="cls-1" d="M337.94,205.85s-45.42-106.71-232.3-121.59c0,0,78.82,31.94,7.76,138.45"/><circle class="cls-3" cx="158.28" cy="252.1" r="20.65"/><circle class="cls-3" cx="283.56" cy="213.21" r="15.09"/><path class="cls-1" d="M269.84,266.23c3.39,16.47-7.21,32.56-23.68,35.95-16.47,3.39-32.56-7.21-35.95-23.68"/><path class="cls-1" d="M152.98,399.02c-2.59,16.28-16.69,28.72-33.7,28.72-18.85,0-34.13-15.28-34.13-34.13,0-16.49,11.7-30.25,27.25-33.44"/><circle class="cls-1" cx="380.74" cy="222.61" r="46.12"/></svg>