<?xml version="1.0" encoding="UTF-8" standalone="no"?>
<svg
   id="Layer_1"
   viewBox="0 0 262144 262144"
   version="1.1"
   sodipodi:docname="adaptiveforeground.svg"
   inkscape:version="1.3.2 (091e20ef0f, 2023-11-25)"
   inkscape:export-filename="capstone-project-team-35/Icons/Adapative/adaptiveforeground.svg"
   inkscape:export-xdpi="96"
   inkscape:export-ydpi="96"
   width="262144"
   height="262144"
   xmlns:inkscape="http://www.inkscape.org/namespaces/inkscape"
   xmlns:sodipodi="http://sodipodi.sourceforge.net/DTD/sodipodi-0.dtd"
   xmlns="http://www.w3.org/2000/svg"
   xmlns:svg="http://www.w3.org/2000/svg">
  <sodipodi:namedview
     id="namedview4"
     pagecolor="#848484"
     bordercolor="#000000"
     borderopacity="0.25"
     inkscape:showpageshadow="2"
     inkscape:pageopacity="0.0"
     inkscape:pagecheckerboard="0"
     inkscape:deskcolor="#d1d1d1"
     inkscape:zoom="1.4238281"
     inkscape:cx="256"
     inkscape:cy="256"
     inkscape:window-width="1920"
     inkscape:window-height="1011"
     inkscape:window-x="0"
     inkscape:window-y="0"
     inkscape:window-maximized="1"
     inkscape:current-layer="Layer_1" />
  <defs
     id="defs1">
    <style
       id="style1">.cls-1,.cls-2{fill:none;}.cls-1,.cls-2,.cls-3{stroke:#fff;stroke-width:24.92px;}.cls-1,.cls-3{stroke-linecap:round;stroke-linejoin:round;}.cls-2{stroke-miterlimit:10;}.cls-3{fill:#fff;}</style>
  </defs>
  <g
     id="g5"
     inkscape:label="Scaling"
     transform="matrix(0.62324701,0,0,0.62324701,111.1475,96.448884)">
    <path
       class="cls-2"
       d="m 362.48,261.88 c 11.95,64.41 -25,129.44 -88.89,150.9 -69.96,23.5 -145.73,-14.16 -169.24,-84.13 -10.9,-32.44 -8.64,-66.12 3.88,-95.27 3.91,-9.09 8.81,-17.74 14.63,-25.77"
       id="path1" />
    <path
       class="cls-1"
       d="m 337.94,205.85 c 0,0 -45.42,-106.71 -232.3,-121.59 0,0 78.82,31.94 7.76,138.45"
       id="path2" />
    <circle
       class="cls-3"
       cx="158.28"
       cy="252.10001"
       r="20.65"
       id="circle2" />
    <circle
       class="cls-3"
       cx="283.56"
       cy="213.21001"
       r="15.09"
       id="circle3" />
    <path
       class="cls-1"
       d="m 269.84,266.23 c 3.39,16.47 -7.21,32.56 -23.68,35.95 -16.47,3.39 -32.56,-7.21 -35.95,-23.68"
       id="path3" />
    <path
       class="cls-1"
       d="m 152.98,399.02 c -2.59,16.28 -16.69,28.72 -33.7,28.72 -18.85,0 -34.13,-15.28 -34.13,-34.13 0,-16.49 11.7,-30.25 27.25,-33.44"
       id="path4" />
    <circle
       class="cls-1"
       cx="380.73999"
       cy="222.61"
       r="46.119999"
       id="circle4" />
  </g>
  <path
     d="M 99.6,0 V 512 M 412.48889,0 V 512 M 99.6,99.6 h 512 m -512,312.9 h 512"
     style="display:none;fill:none;stroke:#000000;stroke-width:1px"
     id="path5" />
</svg>
