<?xml version="1.0" encoding="UTF-8"?><svg id="Layer_2" xmlns="http://www.w3.org/2000/svg" viewBox="0 0 1305.12 281.89"><defs><style>.cls-1,.cls-2{fill:#d45e5e;}.cls-3{stroke-miterlimit:10;}.cls-3,.cls-2,.cls-4{stroke:#d45e5e;stroke-width:19px;}.cls-3,.cls-4{fill:none;}.cls-2,.cls-4{stroke-linecap:round;stroke-linejoin:round;}</style></defs><g id="Layer_1-2"><path class="cls-1" d="M31.37,260.29C11.93,245.9,1.48,225.29,0,198.47h77.14c.74,9.11,3.44,15.75,8.12,19.93,4.67,4.19,10.7,6.27,18.09,6.27,6.64,0,12.12-1.66,16.42-4.98,4.3-3.32,6.46-7.94,6.46-13.84,0-7.62-3.57-13.53-10.7-17.72-7.14-4.18-18.7-8.86-34.7-14.03-16.98-5.66-30.7-11.13-41.15-16.42-10.46-5.29-19.56-13.04-27.31-23.25C4.61,124.22.74,110.87.74,94.38s4.18-31.06,12.55-43c8.36-11.93,19.93-20.98,34.7-27.13,14.76-6.15,31.49-9.23,50.2-9.23,30.27,0,54.44,7.08,72.53,21.22,18.09,14.15,27.74,34.02,28.97,59.61h-78.62c-.25-7.87-2.65-13.78-7.2-17.72-4.56-3.93-10.4-5.91-17.53-5.91-5.42,0-9.84,1.6-13.29,4.8-3.45,3.2-5.17,7.75-5.17,13.66,0,4.93,1.9,9.17,5.72,12.73,3.81,3.57,8.55,6.64,14.21,9.23,5.66,2.58,14.03,5.85,25.1,9.78,16.48,5.66,30.08,11.26,40.79,16.79,10.7,5.54,19.93,13.29,27.68,23.25,7.75,9.97,11.63,22.58,11.63,37.83s-3.88,29.41-11.63,41.71c-7.75,12.31-18.95,22.03-33.59,29.16-14.64,7.14-31.93,10.7-51.86,10.7-30.27,0-55.12-7.2-74.56-21.59Z"/><path class="cls-1" d="M590.92,6.17v273.13h-72.34V6.17h72.34Z"/><path class="cls-1" d="M632.07,119.48c7.75-15.99,18.33-28.29,31.74-36.91,13.41-8.61,28.36-12.92,44.85-12.92,14.27,0,26.58,2.83,36.91,8.49,10.33,5.66,18.33,13.29,23.99,22.88v-28.79h72.34v207.06h-72.34v-28.79c-5.66,9.6-13.72,17.23-24.18,22.88-10.46,5.66-22.7,8.49-36.73,8.49-16.49,0-31.44-4.3-44.85-12.92-13.41-8.61-23.99-20.97-31.74-37.09-7.75-16.11-11.63-34.88-11.63-56.29s3.88-40.11,11.63-56.1ZM758.67,144.21c-7.26-7.62-16.18-11.44-26.76-11.44s-19.81,3.75-26.94,11.26c-7.14,7.51-10.7,18.03-10.7,31.56s3.56,23.81,10.7,31.56c7.13,7.75,16.11,11.63,26.94,11.63s19.5-3.81,26.76-11.44c7.26-7.62,10.89-18.21,10.89-31.74s-3.63-23.74-10.89-31.37Z"/><path class="cls-1" d="M884.72,119.48c8.86-15.99,21.22-28.29,37.09-36.91,15.87-8.61,34.02-12.92,54.44-12.92,26.33,0,48.47,7.2,66.44,21.59,17.96,14.4,29.53,34.51,34.7,60.35h-76.77c-4.43-13.53-13.04-20.3-25.84-20.3-9.11,0-16.3,3.75-21.59,11.26-5.29,7.51-7.94,18.52-7.94,33.03s2.64,25.59,7.94,33.22c5.29,7.63,12.49,11.44,21.59,11.44,13.04,0,21.65-6.76,25.84-20.3h76.77c-5.17,25.59-16.74,45.65-34.7,60.16-17.96,14.52-40.11,21.78-66.44,21.78-20.43,0-38.57-4.3-54.44-12.92-15.87-8.61-28.24-20.91-37.09-36.91-8.86-15.99-13.29-34.82-13.29-56.47s4.43-40.11,13.29-56.1Z"/><path class="cls-1" d="M1304.02,190.35h-136.94c.74,11.32,3.88,19.75,9.41,25.28,5.54,5.54,12.61,8.3,21.22,8.3,12.05,0,20.67-5.41,25.84-16.24h77.14c-3.2,14.27-9.41,27.01-18.64,38.2-9.23,11.2-20.85,20-34.88,26.39-14.03,6.4-29.53,9.6-46.51,9.6-20.43,0-38.57-4.3-54.44-12.92-15.87-8.61-28.3-20.91-37.28-36.91-8.98-15.99-13.47-34.82-13.47-56.47s4.43-40.42,13.29-56.29,21.22-28.11,37.09-36.73c15.87-8.61,34.14-12.92,54.81-12.92s38.51,4.19,54.26,12.55c15.74,8.37,28.05,20.36,36.91,35.99,8.86,15.63,13.29,34.02,13.29,55.18,0,5.66-.37,11.32-1.11,16.98ZM1231.3,155.28c0-8.86-2.95-15.81-8.86-20.85-5.91-5.04-13.29-7.57-22.15-7.57s-16.12,2.4-21.78,7.2c-5.66,4.8-9.35,11.87-11.07,21.22h63.85Z"/></g><g id="sprite"><path class="cls-3" d="M445.25,144.92c9.11,49.1-19.06,98.69-67.77,115.05-53.34,17.92-111.11-10.8-129.03-64.14-8.31-24.73-6.59-50.41,2.96-72.63,2.98-6.93,6.72-13.52,11.15-19.65"/><path class="cls-4" d="M426.54,102.2S391.91,20.84,249.44,9.5c0,0,60.09,24.35,5.92,105.55"/><circle class="cls-2" cx="289.57" cy="137.46" r="15.75"/><circle class="cls-2" cx="385.08" cy="107.81" r="11.5"/><path class="cls-4" d="M374.62,148.23c2.58,12.55-5.5,24.82-18.05,27.41-12.55,2.58-24.82-5.5-27.41-18.05"/><path class="cls-4" d="M285.53,249.47c-1.98,12.41-12.73,21.9-25.7,21.9-14.37,0-26.02-11.65-26.02-26.02,0-12.57,8.92-23.07,20.78-25.49"/><circle class="cls-4" cx="459.17" cy="114.98" r="35.16"/></g></svg>